# xmcd
#
# Track frame offsets: 
#        183
#        23683
#        37645
#        55195
#        70608
#        93658
#        111933
#        127270
#        148120
#        170508
#        187745
#        209495
#        226258
#        238895
#        255020
#        266808
#        277508
#
# Disc length: 3941 seconds
#
# Revision: 4
# Processed by: cddbd v1.5.2PL0 Copyright (c) Steve Scherf et al.
# Submitted via: ExactAudioCopy v0.99pb5
#
DISCID=e50f6311
DTITLE=Ella Fitzgerald - Jazz Lady
DYEAR=1993
DGENRE=Jazz
TTITLE0=In a Mellow Tone
TTITLE1=Night and Day
TTITLE2=The Man I Love
TTITLE3=Fascinating Rhythm
TTITLE4=Don't Get Around Much Any More
TTITLE5=I Get a Kick out of You
TTITLE6=The Lady Is a Tramp
TTITLE7=Someone to Watch over Me
TTITLE8=Summertime
TTITLE9=Can't We Be Friends?
TTITLE10=I Won't Dance
TTITLE11=Lush Life
TTITLE12=You're an Old Smoothie
TTITLE13=Black Coffee
TTITLE14=Baby Don't You Go Way Mad
TTITLE15=A-Tisket, A-Tasket
TTITLE16=Oh, Lady Be Good
EXTD=YEAR: 1993
EXTT0=
EXTT1=
EXTT2=
EXTT3=
EXTT4=
EXTT5=
EXTT6=
EXTT7=
EXTT8=
EXTT9=
EXTT10=
EXTT11=
EXTT12=
EXTT13=
EXTT14=
EXTT15=
EXTT16=
PLAYORDER=
